<?xml version="1.0" encoding="utf-8"?>
<!-- Generator: Adobe Illustrator 25.4.1, SVG Export Plug-In . SVG Version: 6.00 Build 0)  -->
<svg version="1.1" id="Layer_1" xmlns="http://www.w3.org/2000/svg" xmlns:xlink="http://www.w3.org/1999/xlink" x="0px" y="0px"
	 viewBox="0 0 24.2 11.4" style="enable-background:new 0 0 24.2 11.4;" xml:space="preserve">
<style type="text/css">
	.st0{fill:#555555;}
</style>
<g>
	<path class="st0" d="M2.2,9.3C2.1,8.9,2.1,8.5,2.2,8c0.1-0.5,0.2-1,0.4-1.4c0.1-0.3-0.2-0.4-0.5-0.5S1.9,5.4,2.2,5.4
		c0.3,0,0.7-0.1,0.8-0.3c0.2-0.5,0.4-2.1,0.7-2.7c0.3-0.7,1.3-0.9,2.1-0.5c0.3,0.1,0,0.9-0.2,0.9C5.1,2.5,4.9,2.6,4.8,3.1
		C4.6,3.5,4.5,4.8,4.3,5.3C4.2,5.6,3.8,5.8,3.6,5.8C4.1,6,4.1,6.5,4,6.8C3.8,7.2,3.7,7.6,3.6,8C3.5,8.5,3.6,8.9,3.8,8.9
		c0.2,0.1,0.3,0,0.5,0c0.3,0,0.3,0.7,0.1,0.8C3.8,10,2.4,10.1,2.2,9.3z"/>
	<path class="st0" d="M10.7,7.2c0.1-0.3,0.3-1.1,0.4-1.5c0.1-0.2,0-0.4-0.2-0.4c-0.2,0-0.4,0.2-0.6,0.4C10,6.3,9.7,7.5,9.5,8.2
		C9.4,8.5,8.1,8.5,8,8.2c0.2-0.9,0.4-1.7,0.6-2.6c0-0.2,0-0.3-0.2-0.3C8.2,5.3,8,5.4,7.7,5.6C7.4,6.6,7.3,7.3,7.1,8.2
		C6.9,8.5,5.5,8.5,5.5,8.1c0.3-1.3,0.7-2.6,1.1-3.9C6.9,4,7.9,4.1,8,4.4c0,0.1-0.1,0.4-0.2,0.5c0.4-0.3,1-0.7,1.6-0.7
		c0.5,0,0.8,0.2,0.8,0.7c0.4-0.4,1-0.7,1.6-0.7c0.9,0,1.1,0.5,0.9,1.3c-0.2,0.7-0.7,2-0.2,2c0.2,0,0.7-0.4,1.1-1.2
		C13.6,6.2,14,6.5,14,6.6c-0.4,0.8-1.1,1.8-2.2,1.8C10.8,8.5,10.5,7.9,10.7,7.2z"/>
	<path class="st0" d="M16.5,4.4c1-0.3,1.5,0.3,1.3,0.7c-0.5,0.8-1,1.5-1.8,2.3c0.3,0.1,0.5,0.2,0.9,0.2c0.6,0,1-0.4,1.4-1.2
		c0.1-0.1,0.4,0.2,0.4,0.2c-0.6,1.2-1.5,1.9-2.5,2c-0.6,0-0.8-0.2-1.3-0.2c-1.3,0.9-1.9-0.7-0.7-1c0.7-0.7,1.3-1.3,1.7-2
		c-0.4,0.1-1-0.1-1.2-0.5c-0.2,0.7-0.6,1.4-0.9,1.9c-0.1,0.2-0.5-0.1-0.4-0.2C13.7,6,14,5.5,14.3,4.5c-0.8-1.3,1.3-2,0.9-0.3
		C15.5,4.6,16,4.6,16.5,4.4z"/>
	<path class="st0" d="M18.8,9c0.4,0.1,0.6-0.1,0.7-0.5c0.2-0.4,0.3-1.7,0.5-2.2c0.1-0.3,0.5-0.5,0.7-0.5c-0.5-0.2-0.5-0.7-0.4-1
		c0.1-0.4,0.3-0.8,0.3-1.2c0.1-0.5,0.1-0.8-0.1-0.9c-0.2-0.1-0.3,0-0.5,0c-0.3,0-0.3-0.7-0.1-0.8c0.5-0.3,1.9-0.4,2.1,0.4
		c0.1,0.4,0.1,0.8,0,1.2c-0.1,0.5-0.2,1-0.4,1.4c-0.1,0.3,0.2,0.4,0.5,0.5s0.2,0.8-0.1,0.8c-0.3,0-0.7,0.1-0.8,0.3
		c-0.2,0.5-0.4,2.1-0.7,2.7c-0.3,0.7-1.3,0.9-2.1,0.5C18.3,9.7,18.6,8.9,18.8,9z"/>
</g>
</svg>
